STARTFONT 2.1
COMMENT "$XConsortium: us11x19B.bdf /main/2 1996/10/29 18:26:59 drk $"
COMMENT "Hand-pixeled glyphs created with modified X Font Editor (Xfed)"
FONT -HP-HP User-Bold-R-Normal-Serif-15-150-72-72-M-110-ISO8859-1
SIZE 15 72 72 
FONTBOUNDINGBOX 11 19 0 -4
STARTPROPERTIES 25
COMMENT "Begin X Logical Font Description (XLFD) Version 1.5"
COPYRIGHT "(c) Copyright 1994, Hewlett Packard Company"
NOTICE "Created by the User Interaction Design Group, July 1994."
NOTICE "Hewlett Packard Company, 3000 Hanover St., Palo Alto, CA 94303, USA"
FONTNAME_REGISTRY ""
FOUNDRY "HP"
FAMILY_NAME "HP User"
WEIGHT_NAME "Bold"
SLANT "R"
ADD_STYLE_NAME "Serif"
SETWIDTH_NAME "Normal"
PIXEL_SIZE 15
POINT_SIZE 150
RESOLUTION_X 72
RESOLUTION_Y 72
SPACING "M"
AVERAGE_WIDTH 110
CHARSET_REGISTRY "ISO8859"
CHARSET_ENCODING "1"
COMMENT "End X Logical Font Description (XLFD)"
CHARSET_COLLECTIONS "ISO8859-1"
FULL_NAME "HP User11x19B"
CAP_HEIGHT 12
X_HEIGHT 8
FONT_ASCENT 15
FONT_DESCENT 4
DEFAULT_CHAR 32
COMMENT "End of Font Properties"
ENDPROPERTIES
CHARS 223
STARTCHAR Null
ENCODING 0
SWIDTH 733 0
DWIDTH 11 0
BBX 8 19 1 -4
BITMAP
0000
c800
e800
B800
9800
8800
0000
3200
3200
3200
3200
1C00
0000
0c00
0c00
0c00
0c00
0f00
0000
ENDCHAR
STARTCHAR StartOfHeading
ENCODING 1
SWIDTH 733 0
DWIDTH 11 0
BBX 9 19 1 -4
BITMAP
0000
7000
c000
6000
3000
E000
0000
1C00
3200
3200
3200
1C00
0000
0c80
0c80
0f80
0c80
0c80
0000
ENDCHAR
STARTCHAR StartOfText
ENCODING 2
SWIDTH 733 0
DWIDTH 11 0
BBX 9 19 1 -4
BITMAP
0000
7000
c000
6000
3000
E000
0000
7e00
1800
1800
1800
1800
0000
1880
0d00
0600
0b00
1180
0000
ENDCHAR
STARTCHAR EndOfText
ENCODING 3
SWIDTH 733 0
DWIDTH 11 0
BBX 9 19 1 -4
BITMAP
0000
F800
c000
f000
c000
F800
0000
7e00
1800
1800
1800
1800
0000
1880
0d00
0600
0b00
1180
0000
ENDCHAR
STARTCHAR EndOfTransmit
ENCODING 4
SWIDTH 733 0
DWIDTH 11 0
BBX 10 19 1 -4
BITMAP
0000
F800
c000
f000
c000
F800
0000
1C00
3200
3200
3200
1C00
0000
0fC0
0300
0300
0300
0300
0000
ENDCHAR
STARTCHAR Enquiry
ENCODING 5
SWIDTH 733 0
DWIDTH 11 0
BBX 10 19 1 -4
BITMAP
0000
F800
c000
f000
c000
F800
0000
3200
3A00
2e00
2600
2200
0000
0380
0640
0640
0740
0380
00C0
ENDCHAR
STARTCHAR Acknowledge
ENCODING 6
SWIDTH 733 0
DWIDTH 11 0
BBX 10 19 1 -4
BITMAP
0000
7000
c800
F800
c800
c800
0000
1C00
3200
3000
3200
1C00
0000
0640
0680
0780
06c0
0640
0000
ENDCHAR
STARTCHAR Bell
ENCODING 7
SWIDTH 733 0
DWIDTH 11 0
BBX 10 19 1 -4
BITMAP
0000
0200
0400
0C00
1e00
3700
2300
6180
4180
4180
4180
4180
c0c0
80c0
FFC0
0600
0700
0200
0000
ENDCHAR
STARTCHAR BackSpace
ENCODING 8
SWIDTH 733 0
DWIDTH 11 0
BBX 10 19 1 -4
BITMAP
0000
fc00
6600
6600
7c00
6600
6600
fc00
0000
0380
0640
0700
0380
01c0
04c0
0380
0000
0000
0000
ENDCHAR
STARTCHAR HorizontalTab
ENCODING 9
SWIDTH 733 0
DWIDTH 11 0
BBX 9 19 1 -4
BITMAP
0000
cc00
cc00
cc00
Fc00
cc00
cc00
cc00
0000
1F80
0600
0600
0600
0600
0600
0600
0000
0000
0000
ENDCHAR
STARTCHAR LineFeed
ENCODING 10
SWIDTH 733 0
DWIDTH 11 0
BBX 9 19 1 -4
BITMAP
0000
c000
c000
c000
c000
c000
c000
F800
0000
0F80
0c00
0c00
0F00
0c00
0c00
0c00
0000
0000
0000
ENDCHAR
STARTCHAR VerticalTab
ENCODING 11
SWIDTH 733 0
DWIDTH 11 0
BBX 9 19 1 -4
BITMAP
0000
c200
c600
6400
6c00
3800
3800
1000
0000
1f80
0600
0600
0600
0600
0600
0600
0000
0000
0000
ENDCHAR
STARTCHAR FormFeed
ENCODING 12
SWIDTH 733 0
DWIDTH 11 0
BBX 9 19 1 -4
BITMAP
0000
F800
c000
c000
F000
c000
c000
c000
0000
0F80
0c00
0c00
0F00
0c00
0c00
0c00
0000
0000
0000
ENDCHAR
STARTCHAR CarriageReturn
ENCODING 13
SWIDTH 733 0
DWIDTH 11 0
BBX 9 19 1 -4
BITMAP
0000
7000
c800
c000
c000
c000
c800
7000
0000
0F00
0c80
0c80
0F00
0d00
0c80
0c80
0000
0000
0000
ENDCHAR
STARTCHAR ShiftOut
ENCODING 14
SWIDTH 733 0
DWIDTH 11 0
BBX 9 19 1 -4
BITMAP
0000
7000
c800
e000
7000
3800
9800
7000
0000
0700
0c80
0c80
0c80
0c80
0c80
0700
0000
0000
0000
ENDCHAR
STARTCHAR ShiftIn
ENCODING 15
SWIDTH 733 0
DWIDTH 11 0
BBX 9 19 1 -4
BITMAP
0000
7000
c800
e000
7000
3800
9800
7000
0000
0780
0300
0300
0300
0300
0300
0780
0000
0000
0000
ENDCHAR
STARTCHAR DataLinkEscape
ENCODING 16
SWIDTH 733 0
DWIDTH 11 0
BBX 10 19 1 -4
BITMAP
0000
f800
6400
6400
6400
f800
0000
1800
1800
1800
1800
1E00
0000
07C0
0600
0780
0600
07C0
0000
ENDCHAR
STARTCHAR DevCtrl1orXon
ENCODING 17
SWIDTH 733 0
DWIDTH 11 0
BBX 8 19 1 -4
BITMAP
0000
f800
6400
6400
6400
f800
0000
1C00
3200
3000
3200
1C00
0000
0300
0700
0300
0300
0300
0000
ENDCHAR
STARTCHAR DeviceControl2
ENCODING 18
SWIDTH 733 0
DWIDTH 11 0
BBX 9 19 1 -4
BITMAP
0000
f800
6400
6400
6400
f800
0000
1C00
3200
3000
3200
1C00
0000
0700
0980
0300
0600
0f80
0000
ENDCHAR
STARTCHAR DevCtrl3orXoff
ENCODING 19
SWIDTH 733 0
DWIDTH 11 0
BBX 9 19 1 -4
BITMAP
0000
f800
6400
6400
6400
f800
0000
1C00
3200
3000
3200
1C00
0000
0f00
0180
0700
0180
0f00
0000
ENDCHAR
STARTCHAR DeviceControl4
ENCODING 20
SWIDTH 733 0
DWIDTH 11 0
BBX 10 19 1 -4
BITMAP
0000
f800
6400
6400
6400
f800
0000
1C00
3200
3000
3200
1C00
0180
0380
0580
0980
0fc0
0180
0000
ENDCHAR
STARTCHAR NegAcknowledge
ENCODING 21
SWIDTH 733 0
DWIDTH 11 0
BBX 10 19 1 -4
BITMAP
0000
c800
e800
b800
9800
8800
0000
1C00
3200
3E00
3200
3200
0000
0640
0680
0780
06c0
0640
0000
ENDCHAR
STARTCHAR SynchronusIdle
ENCODING 22
SWIDTH 733 0
DWIDTH 11 0
BBX 10 19 1 -4
BITMAP
0000
7000
c000
6000
3000
E000
0000
3100
1A00
0c00
0c00
0c00
0000
0640
0740
05C0
04c0
0440
0000
ENDCHAR
STARTCHAR EndTransmit
ENCODING 23
SWIDTH 733 0
DWIDTH 11 0
BBX 10 19 1 -4
BITMAP
0000
F800
c000
f000
c000
F800
0000
7e00
1800
1800
1800
1800
0000
0f80
0640
0780
0640
0f80
0000
ENDCHAR
STARTCHAR Cancel
ENCODING 24
SWIDTH 733 0
DWIDTH 11 0
BBX 10 19 1 -4
BITMAP
0000
7000
c800
c000
c800
7000
0000
1C00
3200
3E00
3200
3200
0000
0640
0740
05C0
04c0
0440
0000
ENDCHAR
STARTCHAR EndOfMedium
ENCODING 25
SWIDTH 733 0
DWIDTH 11 0
BBX 10 19 1 -4
BITMAP
0000
F800
c000
c000
F000
c000
c000
F800
0000
18c0
1Dc0
1fc0
1ac0
18c0
18c0
18c0
0000
0000
0000
ENDCHAR
STARTCHAR Substitute
ENCODING 26
SWIDTH 733 0
DWIDTH 11 0
BBX 10 19 1 -4
BITMAP
0000
7000
c000
6000
3000
E000
0000
3200
3200
3200
3200
1C00
0000
0f80
0640
0780
0640
0f80
0000
ENDCHAR
STARTCHAR Escape
ENCODING 27
SWIDTH 733 0
DWIDTH 11 0
BBX 10 19 1 -4
BITMAP
0000
F800
c000
f000
c000
F800
0000
0E00
1800
0C00
0600
1C00
0000
0380
0640
0600
0640
0380
0000
ENDCHAR
STARTCHAR FileSeparator
ENCODING 28
SWIDTH 733 0
DWIDTH 11 0
BBX 9 19 1 -4
BITMAP
0000
F800
c000
c000
F000
c000
c000
c000
0000
0700
0c80
0e00
0700
0380
0980
0700
0000
0000
0000
ENDCHAR
STARTCHAR GroupSeparator
ENCODING 29
SWIDTH 733 0
DWIDTH 11 0
BBX 9 19 1 -4
BITMAP
0000
7000
c800
c000
d800
c800
c800
7000
0000
0700
0c80
0e00
0700
0380
0980
0700
0000
0000
0000
ENDCHAR
STARTCHAR RecordSeparatr
ENCODING 30
SWIDTH 733 0
DWIDTH 11 0
BBX 9 19 1 -4
BITMAP
0000
F000
c800
c800
F000
d000
c800
c800
0000
0700
0c80
0e00
0700
0380
0980
0700
0000
0000
0000
ENDCHAR
STARTCHAR UnitSeparator
ENCODING 31
SWIDTH 733 0
DWIDTH 11 0
BBX 9 19 1 -4
BITMAP
0000
c800
c800
c800
c800
c800
c800
7000
0000
0700
0c80
0e00
0700
0380
0980
0700
0000
0000
0000
ENDCHAR
STARTCHAR PrintableSpace
ENCODING 32
SWIDTH 733 0
DWIDTH 11 0
BBX 11 19 0 -4
BITMAP
0000
0000
0000
0000
0000
0000
0000
0000
0000
0000
0000
0000
0000
0000
0000
0000
0000
0000
0000
ENDCHAR
STARTCHAR Exclamation
ENCODING 33
SWIDTH 733 0
DWIDTH 11 0
BBX 3 19 4 -4
BITMAP
0000
0000
e000
e000
e000
e000
e000
e000
e000
e000
e000
0000
0000
4000
e000
e000
4000
0000
0000
ENDCHAR
STARTCHAR NeutrlDblQuote
ENCODING 34
SWIDTH 733 0
DWIDTH 11 0
BBX 5 19 3 -4
BITMAP
0000
0000
d800
d800
d800
9000
9000
0000
0000
0000
0000
0000
0000
0000
0000
0000
0000
0000
0000
ENDCHAR
STARTCHAR NumberSign
ENCODING 35
SWIDTH 733 0
DWIDTH 11 0
BBX 10 19 1 -4
BITMAP
0000
0000
3300
3300
3300
FFC0
FFC0
3300
3300
3300
FFC0
FFC0
3300
3300
3300
3300
0000
0000
0000
ENDCHAR
STARTCHAR DollarSign
ENCODING 36
SWIDTH 733 0
DWIDTH 11 0
BBX 8 19 2 -4
BITMAP
0000
1800
1800
7f00
e300
e100
e000
f000
7c00
3e00
0f00
0700
8700
c700
fe00
1800
1800
0000
0000
ENDCHAR
STARTCHAR PerCentSign
ENCODING 37
SWIDTH 733 0
DWIDTH 11 0
BBX 11 19 0 -4
BITMAP
0000
0000
78c0
Ccc0
Cd80
Cd80
7B00
0600
0600
0C00
0c00
1bC0
3660
3660
6660
63C0
0000
0000
0000
ENDCHAR
STARTCHAR Ampersand
ENCODING 38
SWIDTH 733 0
DWIDTH 11 0
BBX 10 19 1 -4
BITMAP
0000
0000
3c00
6600
6600
6c00
3c00
3800
3800
7dc0
6D80
Cf00
C700
C700
e780
7Dc0
0000
0000
0000
ENDCHAR
STARTCHAR SingleCloseQut
ENCODING 39
SWIDTH 733 0
DWIDTH 11 0
BBX 4 19 3 -4
BITMAP
0000
0000
7000
7000
7000
3000
6000
C000
0000
0000
0000
0000
0000
0000
0000
0000
0000
0000
0000
ENDCHAR
STARTCHAR OpenParen
ENCODING 40
SWIDTH 733 0
DWIDTH 11 0
BBX 5 19 3 -4
BITMAP
0000
1800
3000
7000
6000
e000
e000
e000
e000
e000
e000
e000
e000
6000
7000
3000
1800
0000
0000
ENDCHAR
STARTCHAR CloseParen
ENCODING 41
SWIDTH 733 0
DWIDTH 11 0
BBX 5 19 3 -4
BITMAP
0000
c000
6000
7000
3000
3800
3800
3800
3800
3800
3800
3800
3800
3000
7000
6000
c000
0000
0000
ENDCHAR
STARTCHAR Asterisk
ENCODING 42
SWIDTH 733 0
DWIDTH 11 0
BBX 8 19 2 -4
BITMAP
0000
0000
0000
0000
0000
1800
DB00
DB00
3C00
3C00
DB00
DB00
1800
0000
0000
0000
0000
0000
0000
ENDCHAR
STARTCHAR PlusSign
ENCODING 43
SWIDTH 733 0
DWIDTH 11 0
BBX 10 19 1 -4
BITMAP
0000
0000
0000
0000
0C00
0C00
0C00
0C00
FFC0
FFC0
0C00
0C00
0C00
0C00
0000
0000
0000
0000
0000
ENDCHAR
STARTCHAR Comma
ENCODING 44
SWIDTH 733 0
DWIDTH 11 0
BBX 4 19 3 -4
BITMAP
0000
0000
0000
0000
0000
0000
0000
0000
0000
0000
0000
0000
7000
7000
7000
3000
6000
C000
0000
ENDCHAR
STARTCHAR Hyphen
ENCODING 45
SWIDTH 733 0
DWIDTH 11 0
BBX 10 19 1 -4
BITMAP
0000
0000
0000
0000
0000
0000
0000
0000
FFC0
FFC0
0000
0000
0000
0000
0000
0000
0000
0000
0000
ENDCHAR
STARTCHAR Period
ENCODING 46
SWIDTH 733 0
DWIDTH 11 0
BBX 3 19 4 -4
BITMAP
0000
0000
0000
0000
0000
0000
0000
0000
0000
0000
0000
0000
E000
E000
E000
0000
0000
0000
0000
ENDCHAR
STARTCHAR Slash
ENCODING 47
SWIDTH 733 0
DWIDTH 11 0
BBX 9 19 1 -4
BITMAP
0000
0180
0180
0300
0300
0600
0600
0C00
0C00
1800
1800
3000
3000
6000
6000
C000
C000
0000
0000
ENDCHAR
STARTCHAR Zero
ENCODING 48
SWIDTH 733 0
DWIDTH 11 0
BBX 9 19 1 -4
BITMAP
0000
0000
0000
1c00
7700
6300
e380
c180
c980
c980
c180
e380
6300
7700
1c00
0000
0000
0000
0000
ENDCHAR
STARTCHAR One
ENCODING 49
SWIDTH 733 0
DWIDTH 11 0
BBX 5 19 2 -4
BITMAP
0000
0000
0000
1800
3800
7800
d800
1800
1800
1800
1800
1800
1800
1800
1800
0000
0000
0000
0000
ENDCHAR
STARTCHAR Two
ENCODING 50
SWIDTH 733 0
DWIDTH 11 0
BBX 8 19 2 -4
BITMAP
0000
0000
0000
3c00
6e00
c700
c700
0700
0600
0c00
1800
3000
6100
ff00
ff00
0000
0000
0000
0000
ENDCHAR
STARTCHAR Three
ENCODING 51
SWIDTH 733 0
DWIDTH 11 0
BBX 8 19 2 -4
BITMAP
0000
0000
0000
3C00
6e00
c700
0700
0e00
3C00
0e00
0700
0700
c700
ce00
7C00
0000
0000
0000
0000
ENDCHAR
STARTCHAR Four
ENCODING 52
SWIDTH 733 0
DWIDTH 11 0
BBX 9 19 1 -4
BITMAP
0000
0000
0c00
0c00
1800
1800
3000
3200
6600
6600
ff80
FF80
0600
0600
0600
0000
0000
0000
0000
ENDCHAR
STARTCHAR Five
ENCODING 53
SWIDTH 733 0
DWIDTH 11 0
BBX 8 19 2 -4
BITMAP
0000
0000
0000
7F00
6000
6000
6000
7C00
0e00
0700
0700
0700
c700
ce00
7C00
0000
0000
0000
0000
ENDCHAR
STARTCHAR Six
ENCODING 54
SWIDTH 733 0
DWIDTH 11 0
BBX 8 19 2 -4
BITMAP
0000
0000
0000
0e00
3800
7000
6000
fc00
f600
e300
e300
e300
e300
7600
3c00
0000
0000
0000
0000
ENDCHAR
STARTCHAR Seven
ENCODING 55
SWIDTH 733 0
DWIDTH 11 0
BBX 8 19 2 -4
BITMAP
0000
0000
0000
ff00
ff00
8600
0600
0c00
0c00
1800
1800
1800
3000
3000
3000
0000
0000
0000
0000
ENDCHAR
STARTCHAR Eight
ENCODING 56
SWIDTH 733 0
DWIDTH 11 0
BBX 8 19 2 -4
BITMAP
0000
0000
0000
3c00
6600
e700
e700
7600
3c00
6e00
e700
e700
e700
6600
3C00
0000
0000
0000
0000
ENDCHAR
STARTCHAR Nine
ENCODING 57
SWIDTH 733 0
DWIDTH 11 0
BBX 8 19 2 -4
BITMAP
0000
0000
0000
3C00
6e00
C700
C700
C700
C700
6f00
3f00
0600
0e00
1C00
7000
0000
0000
0000
0000
ENDCHAR
STARTCHAR Colon
ENCODING 58
SWIDTH 733 0
DWIDTH 11 0
BBX 3 19 4 -4
BITMAP
0000
0000
0000
0000
0000
0000
0000
E000
E000
E000
0000
0000
E000
E000
E000
0000
0000
0000
0000
ENDCHAR
STARTCHAR Simicolon
ENCODING 59
SWIDTH 733 0
DWIDTH 11 0
BBX 4 19 3 -4
BITMAP
0000
0000
0000
0000
0000
0000
0000
7000
7000
7000
0000
0000
7000
7000
7000
3000
6000
C000
0000
ENDCHAR
STARTCHAR LessThanSign
ENCODING 60
SWIDTH 733 0
DWIDTH 11 0
BBX 10 19 1 -4
BITMAP
0000
0000
0000
0000
00c0
03c0
0f00
3c00
f000
f000
3c00
0f00
03c0
00c0
0000
0000
0000
0000
0000
ENDCHAR
STARTCHAR EqualsSign
ENCODING 61
SWIDTH 733 0
DWIDTH 11 0
BBX 10 19 1 -4
BITMAP
0000
0000
0000
0000
0000
0000
FFC0
FFC0
0000
0000
FFC0
FFC0
0000
0000
0000
0000
0000
0000
0000
ENDCHAR
STARTCHAR GreatrThanSign
ENCODING 62
SWIDTH 733 0
DWIDTH 11 0
BBX 10 19 1 -4
BITMAP
0000
0000
0000
0000
c000
f000
3c00
0f00
03c0
03c0
0f00
3c00
f000
c000
0000
0000
0000
0000
0000
ENDCHAR
STARTCHAR QuestionMark
ENCODING 63
SWIDTH 733 0
DWIDTH 11 0
BBX 8 19 2 -4
BITMAP
0000
0000
7c00
ee00
c700
c700
0700
0e00
1c00
3800
3800
1000
0000
1000
3800
3800
1000
0000
0000
ENDCHAR
STARTCHAR CommerclAtSign
ENCODING 64
SWIDTH 733 0
DWIDTH 11 0
BBX 10 19 1 -4
BITMAP
0000
0000
1E00
7380
6180
C0c0
Ce40
Db40
Db40
Db40
Db40
Cd80
C000
60c0
7180
1F00
0000
0000
0000
ENDCHAR
STARTCHAR A
ENCODING 65
SWIDTH 733 0
DWIDTH 11 0
BBX 11 19 0 -4
BITMAP
0000
0000
0000
0e00
0e00
0e00
1f00
1700
1700
3380
3f80
2380
61c0
61c0
f3e0
0000
0000
0000
0000
ENDCHAR
STARTCHAR B
ENCODING 66
SWIDTH 733 0
DWIDTH 11 0
BBX 10 19 1 -4
BITMAP
0000
0000
0000
ff00
7380
7180
7180
7300
7f00
7380
71c0
71c0
71c0
7380
ff00
0000
0000
0000
0000
ENDCHAR
STARTCHAR C
ENCODING 67
SWIDTH 733 0
DWIDTH 11 0
BBX 9 19 1 -4
BITMAP
0000
0000
0000
1F80
7180
6180
e000
e000
e000
e000
e000
e000
6180
7180
1f00
0000
0000
0000
0000
ENDCHAR
STARTCHAR D
ENCODING 68
SWIDTH 733 0
DWIDTH 11 0
BBX 10 19 1 -4
BITMAP
0000
0000
0000
FE00
7380
7180
71C0
71C0
71C0
71C0
71C0
71C0
7180
7380
FE00
0000
0000
0000
0000
ENDCHAR
STARTCHAR E
ENCODING 69
SWIDTH 733 0
DWIDTH 11 0
BBX 9 19 1 -4
BITMAP
0000
0000
0000
ff80
7180
7080
7000
7200
7e00
7200
7000
7000
7080
7180
ff80
0000
0000
0000
0000
ENDCHAR
STARTCHAR F
ENCODING 70
SWIDTH 733 0
DWIDTH 11 0
BBX 9 19 1 -4
BITMAP
0000
0000
0000
ff80
7180
7080
7000
7200
7e00
7200
7000
7000
7000
7000
fc00
0000
0000
0000
0000
ENDCHAR
STARTCHAR G
ENCODING 71
SWIDTH 733 0
DWIDTH 11 0
BBX 10 19 1 -4
BITMAP
0000
0000
0000
1f80
7180
6180
e000
e000
e000
e7c0
e380
e380
6380
7380
1f00
0000
0000
0000
0000
ENDCHAR
STARTCHAR H
ENCODING 72
SWIDTH 733 0
DWIDTH 11 0
BBX 10 19 1 -4
BITMAP
0000
0000
0000
Fbc0
7380
7380
7380
7380
7F80
7380
7380
7380
7380
7380
Fbc0
0000
0000
0000
0000
ENDCHAR
STARTCHAR I
ENCODING 73
SWIDTH 733 0
DWIDTH 11 0
BBX 7 19 2 -4
BITMAP
0000
0000
0000
Fe00
3800
3800
3800
3800
3800
3800
3800
3800
3800
3800
Fe00
0000
0000
0000
0000
ENDCHAR
STARTCHAR J
ENCODING 74
SWIDTH 733 0
DWIDTH 11 0
BBX 9 19 1 -4
BITMAP
0000
0000
0000
1F80
0700
0700
0700
0700
0700
0700
0700
c700
c700
6e00
3C00
0000
0000
0000
0000
ENDCHAR
STARTCHAR K
ENCODING 75
SWIDTH 733 0
DWIDTH 11 0
BBX 10 19 1 -4
BITMAP
0000
0000
0000
F9C0
7180
7300
7600
7C00
7c00
7e00
7600
7700
7300
7380
F9C0
0000
0000
0000
0000
ENDCHAR
STARTCHAR L
ENCODING 76
SWIDTH 733 0
DWIDTH 11 0
BBX 9 19 1 -4
BITMAP
0000
0000
0000
F800
7000
7000
7000
7000
7000
7000
7000
7000
7080
7180
FF80
0000
0000
0000
0000
ENDCHAR
STARTCHAR M
ENCODING 77
SWIDTH 733 0
DWIDTH 11 0
BBX 11 19 0 -4
BITMAP
0000
0000
0000
E0E0
71C0
71C0
7bC0
7bC0
7fC0
6eC0
6eC0
64C0
64C0
60C0
F1E0
0000
0000
0000
0000
ENDCHAR
STARTCHAR N
ENCODING 78
SWIDTH 733 0
DWIDTH 11 0
BBX 10 19 1 -4
BITMAP
0000
0000
0000
e3C0
7180
7180
7980
7980
7d80
6d80
6f80
6780
6780
6380
F380
0000
0000
0000
0000
ENDCHAR
STARTCHAR O
ENCODING 79
SWIDTH 733 0
DWIDTH 11 0
BBX 10 19 1 -4
BITMAP
0000
0000
0000
1E00
7380
6180
e1C0
e1C0
e1C0
e1C0
e1C0
e1C0
6180
7380
1E00
0000
0000
0000
0000
ENDCHAR
STARTCHAR P
ENCODING 80
SWIDTH 733 0
DWIDTH 11 0
BBX 10 19 1 -4
BITMAP
0000
0000
0000
ff00
7180
71c0
71c0
71c0
7180
7f00
7000
7000
7000
7000
fc00
0000
0000
0000
0000
ENDCHAR
STARTCHAR Q
ENCODING 81
SWIDTH 733 0
DWIDTH 11 0
BBX 10 19 1 -4
BITMAP
0000
0000
0000
1E00
7380
6180
e1C0
e1C0
e1C0
e1C0
e1C0
e1C0
6d80
7780
1f00
0300
0180
00c0
0000
ENDCHAR
STARTCHAR R
ENCODING 82
SWIDTH 733 0
DWIDTH 11 0
BBX 11 19 0 -4
BITMAP
0000
0000
0000
ff00
7380
7180
7180
7380
7f00
7700
7300
7380
7180
71c0
f8e0
0000
0000
0000
0000
ENDCHAR
STARTCHAR S
ENCODING 83
SWIDTH 733 0
DWIDTH 11 0
BBX 8 19 2 -4
BITMAP
0000
0000
0000
3F00
7300
e100
e000
f000
7c00
3E00
0f00
0700
8700
Ce00
Fc00
0000
0000
0000
0000
ENDCHAR
STARTCHAR T
ENCODING 84
SWIDTH 733 0
DWIDTH 11 0
BBX 9 19 1 -4
BITMAP
0000
0000
0000
ff80
dd80
9c80
1c00
1c00
1c00
1c00
1c00
1c00
1c00
1c00
3e00
0000
0000
0000
0000
ENDCHAR
STARTCHAR U
ENCODING 85
SWIDTH 733 0
DWIDTH 11 0
BBX 10 19 1 -4
BITMAP
0000
0000
0000
FbC0
7180
7180
7180
7180
7180
7180
7180
7180
7180
3b00
1E00
0000
0000
0000
0000
ENDCHAR
STARTCHAR V
ENCODING 86
SWIDTH 733 0
DWIDTH 11 0
BBX 11 19 0 -4
BITMAP
0000
0000
0000
F9e0
70c0
7080
3180
3900
3900
1b00
1e00
1e00
0e00
0c00
0c00
0000
0000
0000
0000
ENDCHAR
STARTCHAR W
ENCODING 87
SWIDTH 733 0
DWIDTH 11 0
BBX 11 19 0 -4
BITMAP
0000
0000
0000
f0e0
6040
6040
6040
3680
3680
3680
3680
1b00
1b00
1b00
1b00
0000
0000
0000
0000
ENDCHAR
STARTCHAR X
ENCODING 88
SWIDTH 733 0
DWIDTH 11 0
BBX 10 19 1 -4
BITMAP
0000
0000
0000
FbC0
7180
3300
3a00
1e00
0c00
1e00
1600
3700
3300
6380
F7C0
0000
0000
0000
0000
ENDCHAR
STARTCHAR Y
ENCODING 89
SWIDTH 733 0
DWIDTH 11 0
BBX 10 19 1 -4
BITMAP
0000
0000
0000
FbC0
7180
3100
3b00
1a00
1e00
0C00
0C00
0C00
0C00
0C00
3F00
0000
0000
0000
0000
ENDCHAR
STARTCHAR Z
ENCODING 90
SWIDTH 733 0
DWIDTH 11 0
BBX 10 19 1 -4
BITMAP
0000
0000
0000
FFc0
c0c0
81c0
0380
0700
0e00
1c00
3800
7000
e040
e0c0
FFc0
0000
0000
0000
0000
ENDCHAR
STARTCHAR OpenBracket
ENCODING 91
SWIDTH 733 0
DWIDTH 11 0
BBX 6 19 3 -4
BITMAP
0000
Fc00
e000
e000
e000
e000
e000
e000
e000
e000
e000
e000
e000
e000
e000
e000
Fc00
0000
0000
ENDCHAR
STARTCHAR BackSlash
ENCODING 92
SWIDTH 733 0
DWIDTH 11 0
BBX 9 19 1 -4
BITMAP
0000
C000
C000
6000
6000
3000
3000
1800
1800
0C00
0C00
0600
0600
0300
0300
0180
0180
0000
0000
ENDCHAR
STARTCHAR CloseBracket
ENCODING 93
SWIDTH 733 0
DWIDTH 11 0
BBX 6 19 3 -4
BITMAP
0000
fc00
1c00
1c00
1c00
1c00
1c00
1c00
1c00
1c00
1c00
1c00
1c00
1c00
1c00
1c00
fc00
0000
0000
ENDCHAR
STARTCHAR Circumflex
ENCODING 94
SWIDTH 733 0
DWIDTH 11 0
BBX 7 19 2 -4
BITMAP
0000
0000
0000
1000
3800
7c00
c600
0000
0000
0000
0000
0000
0000
0000
0000
0000
0000
0000
0000
ENDCHAR
STARTCHAR Underscore
ENCODING 95
SWIDTH 733 0
DWIDTH 11 0
BBX 11 19 0 -4
BITMAP
0000
0000
0000
0000
0000
0000
0000
0000
0000
0000
0000
0000
0000
0000
0000
ffE0
ffe0
0000
0000
ENDCHAR
STARTCHAR SingleOpenQuot
ENCODING 96
SWIDTH 733 0
DWIDTH 11 0
BBX 4 19 4 -4
BITMAP
0000
0000
3000
6000
C000
E000
E000
4000
0000
0000
0000
0000
0000
0000
0000
0000
0000
0000
0000
ENDCHAR
STARTCHAR a
ENCODING 97
SWIDTH 733 0
DWIDTH 11 0
BBX 10 19 1 -4
BITMAP
0000
0000
0000
0000
0000
0000
0000
3f00
6380
0380
3f80
6380
e380
e780
79c0
0000
0000
0000
0000
ENDCHAR
STARTCHAR b
ENCODING 98
SWIDTH 733 0
DWIDTH 11 0
BBX 10 19 1 -4
BITMAP
0000
0000
0000
3000
f000
7000
7000
7700
7980
71c0
71c0
71c0
71c0
7980
6700
0000
0000
0000
0000
ENDCHAR
STARTCHAR c
ENCODING 99
SWIDTH 733 0
DWIDTH 11 0
BBX 8 19 2 -4
BITMAP
0000
0000
0000
0000
0000
0000
0000
3F00
6300
e300
e000
e000
e000
7300
3E00
0000
0000
0000
0000
ENDCHAR
STARTCHAR d
ENCODING 100
SWIDTH 733 0
DWIDTH 11 0
BBX 10 19 1 -4
BITMAP
0000
0000
0000
0180
0780
0380
0380
3B80
6780
e380
e380
e380
e380
6780
39c0
0000
0000
0000
0000
ENDCHAR
STARTCHAR e
ENCODING 101
SWIDTH 733 0
DWIDTH 11 0
BBX 8 19 2 -4
BITMAP
0000
0000
0000
0000
0000
0000
0000
3c00
6600
e700
ff00
e000
e000
6300
3e00
0000
0000
0000
0000
ENDCHAR
STARTCHAR f
ENCODING 102
SWIDTH 733 0
DWIDTH 11 0
BBX 8 19 2 -4
BITMAP
0000
0000
0000
1f00
3800
3800
3800
Ff00
3800
3800
3800
3800
3800
3800
Ff00
0000
0000
0000
0000
ENDCHAR
STARTCHAR g
ENCODING 103
SWIDTH 733 0
DWIDTH 11 0
BBX 9 19 1 -4
BITMAP
0000
0000
0000
0000
0000
0000
0000
7d80
Cf80
C600
e600
7C00
e000
7F00
ff80
c380
e300
7E00
0000
ENDCHAR
STARTCHAR h
ENCODING 104
SWIDTH 733 0
DWIDTH 11 0
BBX 10 19 1 -4
BITMAP
0000
0000
0000
3000
f000
7000
7000
7700
7b80
7380
7380
7380
7380
7380
f7c0
0000
0000
0000
0000
ENDCHAR
STARTCHAR i
ENCODING 105
SWIDTH 733 0
DWIDTH 11 0
BBX 7 19 2 -4
BITMAP
0000
0000
0000
3000
7800
3000
0000
3800
f800
3800
3800
3800
3800
3800
fe00
0000
0000
0000
0000
ENDCHAR
STARTCHAR j
ENCODING 106
SWIDTH 733 0
DWIDTH 11 0
BBX 7 19 1 -4
BITMAP
0000
0000
0000
0c00
1e00
0c00
0000
0600
1e00
0e00
0e00
0e00
0e00
0e00
0e00
0e00
ce00
7c00
0000
ENDCHAR
STARTCHAR k
ENCODING 107
SWIDTH 733 0
DWIDTH 11 0
BBX 10 19 1 -4
BITMAP
0000
0000
0000
3000
f000
7000
7000
7380
7300
7600
7c00
7e00
7700
7380
f9c0
0000
0000
0000
0000
ENDCHAR
STARTCHAR l
ENCODING 108
SWIDTH 733 0
DWIDTH 11 0
BBX 7 19 2 -4
BITMAP
0000
0000
0000
7800
3800
3800
3800
3800
3800
3800
3800
3800
3800
3800
fe00
0000
0000
0000
0000
ENDCHAR
STARTCHAR m
ENCODING 109
SWIDTH 733 0
DWIDTH 11 0
BBX 11 19 0 -4
BITMAP
0000
0000
0000
0000
0000
0000
0000
6cc0
F760
6660
6660
6660
6660
6660
EEE0
0000
0000
0000
0000
ENDCHAR
STARTCHAR n
ENCODING 110
SWIDTH 733 0
DWIDTH 11 0
BBX 10 19 1 -4
BITMAP
0000
0000
0000
0000
0000
0000
0000
6700
fb80
7380
7380
7380
7380
7380
f7c0
0000
0000
0000
0000
ENDCHAR
STARTCHAR o
ENCODING 111
SWIDTH 733 0
DWIDTH 11 0
BBX 8 19 2 -4
BITMAP
0000
0000
0000
0000
0000
0000
0000
3C00
6600
e700
e700
e700
e700
6600
3C00
0000
0000
0000
0000
ENDCHAR
STARTCHAR p
ENCODING 112
SWIDTH 733 0
DWIDTH 11 0
BBX 10 19 1 -4
BITMAP
0000
0000
0000
0000
0000
0000
0000
3700
f980
71c0
71c0
71c0
71c0
7980
7700
7000
7000
fc00
0000
ENDCHAR
STARTCHAR q
ENCODING 113
SWIDTH 733 0
DWIDTH 11 0
BBX 10 19 1 -4
BITMAP
0000
0000
0000
0000
0000
0000
0000
3d80
6380
e380
e380
e380
e380
6780
3B80
0380
0380
0Fc0
0000
ENDCHAR
STARTCHAR r
ENCODING 114
SWIDTH 733 0
DWIDTH 11 0
BBX 9 19 2 -4
BITMAP
0000
0000
0000
0000
0000
0000
0000
3300
f780
7b00
7000
7000
7000
7000
fc00
0000
0000
0000
0000
ENDCHAR
STARTCHAR s
ENCODING 115
SWIDTH 733 0
DWIDTH 11 0
BBX 8 19 2 -4
BITMAP
0000
0000
0000
0000
0000
0000
0000
7f00
e300
f100
7c00
1e00
8f00
c700
fe00
0000
0000
0000
0000
ENDCHAR
STARTCHAR t
ENCODING 116
SWIDTH 733 0
DWIDTH 11 0
BBX 10 19 1 -4
BITMAP
0000
0000
0000
0000
1800
3800
3800
ff80
3800
3800
3800
3800
3800
38c0
1f80
0000
0000
0000
0000
ENDCHAR
STARTCHAR u
ENCODING 117
SWIDTH 733 0
DWIDTH 11 0
BBX 10 19 1 -4
BITMAP
0000
0000
0000
0000
0000
0000
0000
3180
f780
7380
7380
7380
7380
77C0
3980
0000
0000
0000
0000
ENDCHAR
STARTCHAR v
ENCODING 118
SWIDTH 733 0
DWIDTH 11 0
BBX 11 19 0 -4
BITMAP
0000
0000
0000
0000
0000
0000
0000
f9e0
70c0
3880
3980
1d00
1f00
0e00
0e00
0000
0000
0000
0000
ENDCHAR
STARTCHAR w
ENCODING 119
SWIDTH 733 0
DWIDTH 11 0
BBX 11 19 0 -4
BITMAP
0000
0000
0000
0000
0000
0000
0000
f9E0
70c0
76c0
7680
3f80
3b80
3b00
3b00
0000
0000
0000
0000
ENDCHAR
STARTCHAR x
ENCODING 120
SWIDTH 733 0
DWIDTH 11 0
BBX 10 19 1 -4
BITMAP
0000
0000
0000
0000
0000
0000
0000
fbc0
7180
3b00
1e00
1e00
3700
6380
f7c0
0000
0000
0000
0000
ENDCHAR
STARTCHAR y
ENCODING 121
SWIDTH 733 0
DWIDTH 11 0
BBX 10 19 1 -4
BITMAP
0000
0000
0000
0000
0000
0000
0000
f9c0
7080
3980
3900
1f00
1e00
0e00
0c00
4c00
f800
7000
0000
ENDCHAR
STARTCHAR z
ENCODING 122
SWIDTH 733 0
DWIDTH 11 0
BBX 9 19 1 -4
BITMAP
0000
0000
0000
0000
0000
0000
0000
7f80
6380
4700
0e00
1c00
3880
7180
ff80
0000
0000
0000
0000
ENDCHAR
STARTCHAR OpenBrace
ENCODING 123
SWIDTH 733 0
DWIDTH 11 0
BBX 8 19 2 -4
BITMAP
0000
0f00
1c00
1c00
1c00
1c00
1c00
3800
f000
3800
1c00
1c00
1c00
1c00
1c00
1c00
0f00
0000
0000
ENDCHAR
STARTCHAR LongVertMark
ENCODING 124
SWIDTH 733 0
DWIDTH 11 0
BBX 2 19 5 -4
BITMAP
0000
0000
C000
C000
C000
C000
C000
C000
C000
C000
C000
C000
C000
C000
C000
C000
0000
0000
0000
ENDCHAR
STARTCHAR CloseBrace
ENCODING 125
SWIDTH 733 0
DWIDTH 11 0
BBX 8 19 3 -4
BITMAP
0000
f000
3800
3800
3800
3800
3800
1c00
0f00
1c00
3800
3800
3800
3800
3800
3800
f000
0000
0000
ENDCHAR
STARTCHAR OneWavyLine
ENCODING 126
SWIDTH 733 0
DWIDTH 11 0
BBX 9 19 1 -4
BITMAP
0000
0000
0000
0000
0000
0000
0000
7080
fc80
9f80
8700
0000
0000
0000
0000
0000
0000
0000
0000
ENDCHAR
STARTCHAR MediumShading
ENCODING 127
SWIDTH 733 0
DWIDTH 11 0
BBX 11 19 0 -4
BITMAP
ccc0
ccc0
3320
3320
ccc0
ccc0
3320
3320
ccc0
ccc0
3320
3320
ccc0
ccc0
3320
3320
ccc0
ccc0
3320
ENDCHAR
STARTCHAR InvExclamation
ENCODING 161
SWIDTH 733 0
DWIDTH 11 0
BBX 3 19 4 -4
BITMAP
0000
0000
4000
e000
e000
4000
0000
0000
e000
e000
e000
e000
e000
e000
e000
e000
e000
0000
0000
ENDCHAR
STARTCHAR CentSign
ENCODING 162
SWIDTH 733 0
DWIDTH 11 0
BBX 9 19 2 -4
BITMAP
0000
0000
0000
0000
1800
1800
3f00
6300
e300
e000
e000
e300
7300
3E00
1800
1800
0000
0000
0000
ENDCHAR
STARTCHAR SterlingSign
ENCODING 163
SWIDTH 733 0
DWIDTH 11 0
BBX 9 19 1 -4
BITMAP
0000
0000
0000
1E00
3300
7000
7000
7000
fC00
7000
FC00
7000
7180
Ff80
Cf00
0000
0000
0000
0000
ENDCHAR
STARTCHAR CurrencySymbol
ENCODING 164
SWIDTH 733 0
DWIDTH 11 0
BBX 10 19 1 -4
BITMAP
0000
0000
0000
4080
EDC0
7F80
3300
6180
6180
3300
7F80
EDC0
4080
0000
0000
0000
0000
0000
0000
ENDCHAR
STARTCHAR Yensign
ENCODING 165
SWIDTH 733 0
DWIDTH 11 0
BBX 10 19 1 -4
BITMAP
0000
0000
0000
FbC0
7180
3100
3b00
1a00
1e00
0C00
7f80
0C00
7f80
0C00
1e00
0000
0000
0000
0000
ENDCHAR
STARTCHAR BrokenVertMark
ENCODING 166
SWIDTH 733 0
DWIDTH 11 0
BBX 2 19 5 -4
BITMAP
0000
0000
C000
C000
C000
C000
C000
C000
0000
0000
C000
C000
C000
C000
C000
C000
0000
0000
0000
ENDCHAR
STARTCHAR SectionMark
ENCODING 167
SWIDTH 733 0
DWIDTH 11 0
BBX 7 19 3 -4
BITMAP
0000
0000
0000
3c00
4e00
6400
7000
7800
9c00
ce00
e600
7200
3c00
1c00
4c00
e400
7800
0000
0000
ENDCHAR
STARTCHAR diaeresisAccnt
ENCODING 168
SWIDTH 733 0
DWIDTH 11 0
BBX 6 19 3 -4
BITMAP
0000
0000
0000
CC00
CC00
0000
0000
0000
0000
0000
0000
0000
0000
0000
0000
0000
0000
0000
0000
ENDCHAR
STARTCHAR CopyrightSign
ENCODING 169
SWIDTH 733 0
DWIDTH 11 0
BBX 9 19 1 -4
BITMAP
0000
0000
0000
0000
3e00
4100
9e80
b280
b080
b280
9c80
4100
3e00
0000
0000
0000
0000
0000
0000
ENDCHAR
STARTCHAR FemaleOrdinal
ENCODING 170
SWIDTH 733 0
DWIDTH 11 0
BBX 7 19 2 -4
BITMAP
0000
0000
7800
0c00
7C00
cC00
CC00
7a00
0000
fe00
0000
0000
0000
0000
0000
0000
0000
0000
0000
ENDCHAR
STARTCHAR DblOpenAnglQut
ENCODING 171
SWIDTH 733 0
DWIDTH 11 0
BBX 10 19 1 -4
BITMAP
0000
0000
0000
0000
0840
18c0
39c0
7380
e700
e700
7380
39c0
18c0
0840
0000
0000
0000
0000
0000
ENDCHAR
STARTCHAR NotSign
ENCODING 172
SWIDTH 733 0
DWIDTH 11 0
BBX 10 19 1 -4
BITMAP
0000
0000
0000
0000
0000
0000
0000
0000
FFC0
FFC0
00c0
00c0
00c0
0000
0000
0000
0000
0000
0000
ENDCHAR
STARTCHAR SoftHyphen
ENCODING 173
SWIDTH 733 0
DWIDTH 11 0
BBX 10 19 1 -4
BITMAP
0000
0000
0000
0000
0000
0000
0000
0000
FFC0
FFC0
0000
0000
0000
0000
0000
0000
0000
0000
0000
ENDCHAR
STARTCHAR RegisTradeMark
ENCODING 174
SWIDTH 733 0
DWIDTH 11 0
BBX 9 19 1 -4
BITMAP
0000
0000
0000
0000
3e00
4100
bc80
b680
b680
bc80
b680
b280
4100
3e00
0000
0000
0000
0000
0000
ENDCHAR
STARTCHAR macronAccent
ENCODING 175
SWIDTH 733 0
DWIDTH 11 0
BBX 9 19 1 -4
BITMAP
0000
0000
0000
FF80
FF80
0000
0000
0000
0000
0000
0000
0000
0000
0000
0000
0000
0000
0000
0000
ENDCHAR
STARTCHAR DegreeSign
ENCODING 176
SWIDTH 733 0
DWIDTH 11 0
BBX 6 19 3 -4
BITMAP
0000
0000
0000
7800
CC00
CC00
CC00
7800
0000
0000
0000
0000
0000
0000
0000
0000
0000
0000
0000
ENDCHAR
STARTCHAR PlusOverMinus
ENCODING 177
SWIDTH 733 0
DWIDTH 11 0
BBX 8 19 2 -4
BITMAP
0000
0000
0000
0000
1800
1800
ff00
ff00
1800
1800
0000
ff00
ff00
0000
0000
0000
0000
0000
0000
ENDCHAR
STARTCHAR SupNumberTwo
ENCODING 178
SWIDTH 733 0
DWIDTH 11 0
BBX 6 19 2 -4
BITMAP
0000
0000
7800
cc00
cc00
1800
3000
6400
fc00
fc00
0000
0000
0000
0000
0000
0000
0000
0000
0000
ENDCHAR
STARTCHAR SupNumberThree
ENCODING 179
SWIDTH 733 0
DWIDTH 11 0
BBX 6 19 2 -4
BITMAP
0000
0000
7800
dC00
1C00
7800
1C00
1C00
dc00
7800
0000
0000
0000
0000
0000
0000
0000
0000
0000
ENDCHAR
STARTCHAR acuteAccent
ENCODING 180
SWIDTH 733 0
DWIDTH 11 0
BBX 5 19 3 -4
BITMAP
0000
0000
0000
3800
7000
C000
0000
0000
0000
0000
0000
0000
0000
0000
0000
0000
0000
0000
0000
ENDCHAR
STARTCHAR muGreek
ENCODING 181
SWIDTH 733 0
DWIDTH 11 0
BBX 10 19 1 -4
BITMAP
0000
0000
0000
0000
0000
0000
0000
18C0
18C0
18C0
3180
3180
3180
7bC0
6EC0
6000
C000
C000
0000
ENDCHAR
STARTCHAR ParagraphSign
ENCODING 182
SWIDTH 733 0
DWIDTH 11 0
BBX 8 19 1 -4
BITMAP
0000
0000
0000
3f00
7a00
fa00
fa00
fa00
fa00
7a00
3a00
0a00
0a00
0a00
0a00
0a00
0000
0000
0000
ENDCHAR
STARTCHAR middleDot
ENCODING 183
SWIDTH 733 0
DWIDTH 11 0
BBX 3 19 4 -4
BITMAP
0000
0000
0000
0000
0000
0000
0000
4000
e000
e000
4000
0000
0000
0000
0000
0000
0000
0000
0000
ENDCHAR
STARTCHAR cedilla
ENCODING 184
SWIDTH 733 0
DWIDTH 11 0
BBX 6 19 3 -4
BITMAP
0000
0000
0000
0000
0000
0000
0000
0000
0000
0000
0000
0000
0000
0000
0000
1000
3800
9c00
7800
ENDCHAR
STARTCHAR SupNumberOne
ENCODING 185
SWIDTH 733 0
DWIDTH 11 0
BBX 4 19 3 -4
BITMAP
0000
0000
3000
7000
b000
3000
3000
3000
3000
3000
0000
0000
0000
0000
0000
0000
0000
0000
0000
ENDCHAR
STARTCHAR MaleOrdinal
ENCODING 186
SWIDTH 733 0
DWIDTH 11 0
BBX 7 19 2 -4
BITMAP
0000
0000
7800
cc00
CC00
CC00
CC00
7800
0000
fe00
0000
0000
0000
0000
0000
0000
0000
0000
0000
ENDCHAR
STARTCHAR DblClosAnglQut
ENCODING 187
SWIDTH 733 0
DWIDTH 11 0
BBX 10 19 1 -4
BITMAP
0000
0000
0000
0000
8400
c600
e700
7380
39c0
39c0
7380
e700
c600
8400
0000
0000
0000
0000
0000
ENDCHAR
STARTCHAR FracOneFourth
ENCODING 188
SWIDTH 733 0
DWIDTH 11 0
BBX 11 19 0 -4
BITMAP
0000
3000
7000
b020
3060
30c0
3180
3300
3600
0d00
1900
3300
6240
c6C0
8eC0
0FE0
00C0
00C0
0000
ENDCHAR
STARTCHAR FracOneHalf
ENCODING 189
SWIDTH 733 0
DWIDTH 11 0
BBX 11 19 0 -4
BITMAP
0000
3000
7000
b020
3060
30c0
3180
3300
3600
0C00
1bC0
3660
6660
c0C0
8180
0320
07e0
07E0
0000
ENDCHAR
STARTCHAR FracThreeFour
ENCODING 190
SWIDTH 733 0
DWIDTH 11 0
BBX 11 19 0 -4
BITMAP
7800
dC00
1C00
7820
1C60
1Cc0
dd80
7b00
0600
0d00
1900
3300
6240
c6C0
8eC0
0fE0
00C0
00C0
0000
ENDCHAR
STARTCHAR InvertQuestion
ENCODING 191
SWIDTH 733 0
DWIDTH 11 0
BBX 8 19 2 -4
BITMAP
0000
0000
0800
1C00
1c00
0800
0000
0800
1C00
1C00
3800
7000
E000
E300
E300
7700
3e00
0000
0000
ENDCHAR
STARTCHAR Agrave
ENCODING 192
SWIDTH 733 0
DWIDTH 11 0
BBX 11 19 0 -4
BITMAP
7000
3800
0c00
0000
0e00
0e00
0f00
1f00
1700
1380
3F80
3380
21c0
61c0
f3e0
0000
0000
0000
0000
ENDCHAR
STARTCHAR Aacute
ENCODING 193
SWIDTH 733 0
DWIDTH 11 0
BBX 11 19 0 -4
BITMAP
01c0
0380
0600
0000
0e00
0e00
0f00
1f00
1700
1380
3F80
3380
21c0
61c0
f3e0
0000
0000
0000
0000
ENDCHAR
STARTCHAR Acircumflex
ENCODING 194
SWIDTH 733 0
DWIDTH 11 0
BBX 11 19 0 -4
BITMAP
0c00
1e00
3300
0000
0e00
0e00
0f00
1f00
1700
1380
3F80
3380
21c0
61c0
f3e0
0000
0000
0000
0000
ENDCHAR
STARTCHAR Atilde
ENCODING 195
SWIDTH 733 0
DWIDTH 11 0
BBX 11 19 0 -4
BITMAP
1c00
2e80
0700
0000
0e00
0e00
0f00
1f00
1700
1380
3f80
3380
21c0
61c0
f3e0
0000
0000
0000
0000
ENDCHAR
STARTCHAR Adiaeresis
ENCODING 196
SWIDTH 733 0
DWIDTH 11 0
BBX 11 19 0 -4
BITMAP
1b00
1b00
0000
0e00
0e00
0e00
1f00
1700
1700
3380
3F80
2380
61c0
61c0
f3e0
0000
0000
0000
0000
ENDCHAR
STARTCHAR Abolle
ENCODING 197
SWIDTH 733 0
DWIDTH 11 0
BBX 11 19 0 -4
BITMAP
0e00
1b00
1100
1b00
0e00
0e00
0f00
1f00
1700
1380
3F80
3380
21c0
61c0
f3e0
0000
0000
0000
0000
ENDCHAR
STARTCHAR AEdiphthong
ENCODING 198
SWIDTH 733 0
DWIDTH 11 0
BBX 11 19 0 -4
BITMAP
0000
0000
0000
1FE0
0e60
1e20
1600
1640
37c0
2640
3e00
6600
4620
4660
EFE0
0000
0000
0000
0000
ENDCHAR
STARTCHAR Ccedilla
ENCODING 199
SWIDTH 733 0
DWIDTH 11 0
BBX 9 19 1 -4
BITMAP
0000
0000
0000
1F80
7180
6180
e000
e000
e000
e000
e000
e000
6180
7180
1f00
0400
0E00
2700
1E00
ENDCHAR
STARTCHAR Egrave
ENCODING 200
SWIDTH 733 0
DWIDTH 11 0
BBX 9 19 1 -4
BITMAP
7000
3800
0c00
0000
ff80
7180
7080
7000
7200
7e00
7200
7000
7080
7180
ff80
0000
0000
0000
0000
ENDCHAR
STARTCHAR Eacute
ENCODING 201
SWIDTH 733 0
DWIDTH 11 0
BBX 9 19 1 -4
BITMAP
0700
0e00
1800
0000
ff80
7180
7080
7000
7200
7e00
7200
7000
7080
7180
ff80
0000
0000
0000
0000
ENDCHAR
STARTCHAR Ecircumflex
ENCODING 202
SWIDTH 733 0
DWIDTH 11 0
BBX 9 19 1 -4
BITMAP
1800
3c00
6600
0000
ff80
7180
7080
7000
7200
7e00
7200
7000
7080
7180
ff80
0000
0000
0000
0000
ENDCHAR
STARTCHAR Ediaeresis
ENCODING 203
SWIDTH 733 0
DWIDTH 11 0
BBX 9 19 1 -4
BITMAP
0000
3300
3300
0000
ff80
7180
7080
7000
7200
7e00
7200
7000
7080
7180
ff80
0000
0000
0000
0000
ENDCHAR
STARTCHAR Igrave
ENCODING 204
SWIDTH 733 0
DWIDTH 11 0
BBX 7 19 2 -4
BITMAP
e000
7000
1800
0000
fe00
3800
3800
3800
3800
3800
3800
3800
3800
3800
fe00
0000
0000
0000
0000
ENDCHAR
STARTCHAR Iacute
ENCODING 205
SWIDTH 733 0
DWIDTH 11 0
BBX 7 19 2 -4
BITMAP
0e00
1c00
3000
0000
fe00
3800
3800
3800
3800
3800
3800
3800
3800
3800
fe00
0000
0000
0000
0000
ENDCHAR
STARTCHAR Icircumflex
ENCODING 206
SWIDTH 733 0
DWIDTH 11 0
BBX 7 19 2 -4
BITMAP
1800
3c00
6600
0000
fe00
3800
3800
3800
3800
3800
3800
3800
3800
3800
fe00
0000
0000
0000
0000
ENDCHAR
STARTCHAR Idiaeresis
ENCODING 207
SWIDTH 733 0
DWIDTH 11 0
BBX 7 19 2 -4
BITMAP
0000
6c00
6c00
0000
fe00
3800
3800
3800
3800
3800
3800
3800
3800
3800
fe00
0000
0000
0000
0000
ENDCHAR
STARTCHAR Eth
ENCODING 208
SWIDTH 733 0
DWIDTH 11 0
BBX 10 19 1 -4
BITMAP
0000
0000
0000
FE00
7380
7180
71C0
71C0
FdC0
71C0
71C0
71C0
7180
7380
FE00
0000
0000
0000
0000
ENDCHAR
STARTCHAR Ntilde
ENCODING 209
SWIDTH 733 0
DWIDTH 11 0
BBX 10 19 1 -4
BITMAP
3800
5d00
0e00
0000
f3c0
7180
7980
7980
7d80
6d80
6f80
6780
6780
6380
f380
0000
0000
0000
0000
ENDCHAR
STARTCHAR Ograve
ENCODING 210
SWIDTH 733 0
DWIDTH 11 0
BBX 10 19 1 -4
BITMAP
7000
3800
0c00
0000
1E00
7380
6180
e1C0
e1C0
e1C0
e1C0
e1C0
6180
7380
1E00
0000
0000
0000
0000
ENDCHAR
STARTCHAR Oacute
ENCODING 211
SWIDTH 733 0
DWIDTH 11 0
BBX 10 19 1 -4
BITMAP
0380
0700
0c00
0000
1E00
7380
6180
e1C0
e1C0
e1C0
e1C0
e1C0
6180
7380
1E00
0000
0000
0000
0000
ENDCHAR
STARTCHAR Ocircumflex
ENCODING 212
SWIDTH 733 0
DWIDTH 11 0
BBX 10 19 1 -4
BITMAP
0C00
1E00
3300
0000
1E00
7380
6180
e1C0
e1C0
e1C0
e1C0
e1C0
6180
7380
1E00
0000
0000
0000
0000
ENDCHAR
STARTCHAR Otilde
ENCODING 213
SWIDTH 733 0
DWIDTH 11 0
BBX 10 19 1 -4
BITMAP
1c00
2e80
0700
0000
1E00
7380
6180
e1C0
e1C0
e1C0
e1C0
e1C0
6180
7380
1E00
0000
0000
0000
0000
ENDCHAR
STARTCHAR Odiaeresis
ENCODING 214
SWIDTH 733 0
DWIDTH 11 0
BBX 10 19 1 -4
BITMAP
0000
3300
3300
0000
1E00
7380
6180
e1C0
e1C0
e1C0
e1C0
e1C0
6180
7380
1E00
0000
0000
0000
0000
ENDCHAR
STARTCHAR MultiplySign
ENCODING 215
SWIDTH 733 0
DWIDTH 11 0
BBX 10 19 1 -4
BITMAP
0000
0000
0000
0000
c0c0
e1c0
7380
3f00
1e00
1e00
3f00
7380
e1c0
c0c0
0000
0000
0000
0000
0000
ENDCHAR
STARTCHAR Ooblique
ENCODING 216
SWIDTH 733 0
DWIDTH 11 0
BBX 10 19 1 -4
BITMAP
0000
0100
0100
1F00
7380
6380
e7C0
e5C0
e5C0
edC0
e9C0
e9C0
7980
7380
3E00
1000
1000
0000
0000
ENDCHAR
STARTCHAR Ugrave
ENCODING 217
SWIDTH 733 0
DWIDTH 11 0
BBX 10 19 1 -4
BITMAP
7000
3800
0c00
0000
fbc0
7180
7180
7180
7180
7180
7180
7180
7180
3b00
1E00
0000
0000
0000
0000
ENDCHAR
STARTCHAR Uacute
ENCODING 218
SWIDTH 733 0
DWIDTH 11 0
BBX 10 19 1 -4
BITMAP
0380
0700
0c00
0000
fbc0
7180
7180
7180
7180
7180
7180
7180
7180
3b00
1E00
0000
0000
0000
0000
ENDCHAR
STARTCHAR Ucircumflex
ENCODING 219
SWIDTH 733 0
DWIDTH 11 0
BBX 10 19 1 -4
BITMAP
0c00
1e00
3300
0000
fbc0
7180
7180
7180
7180
7180
7180
7180
7180
3b00
1E00
0000
0000
0000
0000
ENDCHAR
STARTCHAR Udiaeresis
ENCODING 220
SWIDTH 733 0
DWIDTH 11 0
BBX 10 19 1 -4
BITMAP
3300
3300
0000
fbc0
7180
7180
7180
7180
7180
7180
7180
7180
7180
3b00
1E00
0000
0000
0000
0000
ENDCHAR
STARTCHAR Yacute
ENCODING 221
SWIDTH 733 0
DWIDTH 11 0
BBX 10 19 1 -4
BITMAP
0380
0700
0c00
0000
FbC0
7180
3100
3b00
1a00
1e00
0C00
0C00
0C00
0C00
0C00
3F00
0000
0000
0000
ENDCHAR
STARTCHAR Thorn
ENCODING 222
SWIDTH 733 0
DWIDTH 11 0
BBX 10 19 1 -4
BITMAP
0000
0000
0000
F800
7000
7f00
7380
71c0
71c0
71c0
7380
7f00
7000
7000
F800
0000
0000
0000
0000
ENDCHAR
STARTCHAR EsZetLigature
ENCODING 223
SWIDTH 733 0
DWIDTH 11 0
BBX 10 19 1 -4
BITMAP
0000
0000
0000
3E00
6700
6700
6700
6600
6F00
6380
61C0
61C0
6dC0
6D80
6700
6000
e000
0000
0000
ENDCHAR
STARTCHAR agrave
ENCODING 224
SWIDTH 733 0
DWIDTH 11 0
BBX 10 19 1 -4
BITMAP
0000
0000
0000
7000
3800
0c00
0000
3f00
6380
0380
3F80
6380
e380
e780
79c0
0000
0000
0000
0000
ENDCHAR
STARTCHAR aacute
ENCODING 225
SWIDTH 733 0
DWIDTH 11 0
BBX 10 19 1 -4
BITMAP
0000
0000
0000
0380
0700
0c00
0000
3f00
6380
0380
3F80
6380
e380
e780
79c0
0000
0000
0000
0000
ENDCHAR
STARTCHAR acircumflex
ENCODING 226
SWIDTH 733 0
DWIDTH 11 0
BBX 10 19 1 -4
BITMAP
0000
0000
0000
0c00
1e00
3300
0000
3f00
6380
0380
3f80
6380
e380
e780
79c0
0000
0000
0000
0000
ENDCHAR
STARTCHAR atilde
ENCODING 227
SWIDTH 733 0
DWIDTH 11 0
BBX 10 19 1 -4
BITMAP
0000
0000
0000
1c00
2e80
0700
0000
3f00
6380
0380
3F80
6380
e380
e780
79c0
0000
0000
0000
0000
ENDCHAR
STARTCHAR adiaeresis
ENCODING 228
SWIDTH 733 0
DWIDTH 11 0
BBX 10 19 1 -4
BITMAP
0000
0000
0000
3300
3300
0000
0000
3f00
6380
0380
3F80
6380
e380
e780
79c0
0000
0000
0000
0000
ENDCHAR
STARTCHAR abolle
ENCODING 229
SWIDTH 733 0
DWIDTH 11 0
BBX 10 19 1 -4
BITMAP
0000
1c00
3600
3600
3600
1c00
0000
3f00
6380
0380
3f80
6380
e380
e780
79c0
0000
0000
0000
0000
ENDCHAR
STARTCHAR aedihthong
ENCODING 230
SWIDTH 733 0
DWIDTH 11 0
BBX 11 19 0 -4
BITMAP
0000
0000
0000
0000
0000
0000
0000
7bC0
ce60
0e60
7FE0
ce00
ce00
df60
73C0
0000
0000
0000
0000
ENDCHAR
STARTCHAR ccedilla
ENCODING 231
SWIDTH 733 0
DWIDTH 11 0
BBX 8 19 2 -4
BITMAP
0000
0000
0000
0000
0000
0000
0000
3F00
6300
e300
e000
e000
e000
7300
3E00
0800
1C00
4e00
3C00
ENDCHAR
STARTCHAR egrave
ENCODING 232
SWIDTH 733 0
DWIDTH 11 0
BBX 8 19 2 -4
BITMAP
0000
0000
0000
7000
3800
0c00
0000
3c00
6600
e700
ff00
e000
e000
6300
3e00
0000
0000
0000
0000
ENDCHAR
STARTCHAR eacute
ENCODING 233
SWIDTH 733 0
DWIDTH 11 0
BBX 8 19 2 -4
BITMAP
0000
0000
0000
0700
0e00
1800
0000
3c00
6600
e700
FF00
e000
e000
6300
3e00
0000
0000
0000
0000
ENDCHAR
STARTCHAR ecircumflex
ENCODING 234
SWIDTH 733 0
DWIDTH 11 0
BBX 8 19 2 -4
BITMAP
0000
0000
0000
1800
3c00
6600
0000
3c00
6600
e700
ff00
e000
e000
6300
3e00
0000
0000
0000
0000
ENDCHAR
STARTCHAR ediaeresis
ENCODING 235
SWIDTH 733 0
DWIDTH 11 0
BBX 8 19 2 -4
BITMAP
0000
0000
0000
6600
6600
0000
0000
3c00
6600
e700
FF00
e000
e000
6300
3e00
0000
0000
0000
0000
ENDCHAR
STARTCHAR igrave
ENCODING 236
SWIDTH 733 0
DWIDTH 11 0
BBX 7 19 2 -4
BITMAP
0000
0000
0000
e000
7000
1800
0000
3800
f800
3800
3800
3800
3800
3800
fe00
0000
0000
0000
0000
ENDCHAR
STARTCHAR iacute
ENCODING 237
SWIDTH 733 0
DWIDTH 11 0
BBX 7 19 2 -4
BITMAP
0000
0000
0000
0e00
1c00
3000
0000
3800
F800
3800
3800
3800
3800
3800
Fe00
0000
0000
0000
0000
ENDCHAR
STARTCHAR icircumflex
ENCODING 238
SWIDTH 733 0
DWIDTH 11 0
BBX 7 19 2 -4
BITMAP
0000
0000
0000
3000
7800
cc00
0000
3800
f800
3800
3800
3800
3800
3800
fe00
0000
0000
0000
0000
ENDCHAR
STARTCHAR idiaeresis
ENCODING 239
SWIDTH 733 0
DWIDTH 11 0
BBX 7 19 2 -4
BITMAP
0000
0000
0000
cc00
cc00
0000
0000
3800
f800
3800
3800
3800
3800
3800
fe00
0000
0000
0000
0000
ENDCHAR
STARTCHAR ethIcelandic
ENCODING 240
SWIDTH 733 0
DWIDTH 11 0
BBX 8 19 2 -4
BITMAP
0000
0000
c200
7c00
3800
6c00
8c00
3e00
6600
e700
e700
e700
e700
6600
3c00
0000
0000
0000
0000
ENDCHAR
STARTCHAR ntilde
ENCODING 241
SWIDTH 733 0
DWIDTH 11 0
BBX 10 19 1 -4
BITMAP
0000
0000
0000
3800
5d00
0e00
0000
6700
Fb80
7380
7380
7380
7380
7380
F7C0
0000
0000
0000
0000
ENDCHAR
STARTCHAR ograve
ENCODING 242
SWIDTH 733 0
DWIDTH 11 0
BBX 9 19 2 -4
BITMAP
0000
0000
0000
e000
7000
1800
0000
3C00
6600
e700
e700
e700
e700
6600
3C00
0000
0000
0000
0000
ENDCHAR
STARTCHAR oacute
ENCODING 243
SWIDTH 733 0
DWIDTH 11 0
BBX 8 19 2 -4
BITMAP
0000
0000
0000
0700
0E00
1800
0000
3C00
6600
e700
e700
e700
e700
6600
3C00
0000
0000
0000
0000
ENDCHAR
STARTCHAR ocircumflex
ENCODING 244
SWIDTH 733 0
DWIDTH 11 0
BBX 8 19 2 -4
BITMAP
0000
0000
0000
1800
3C00
6600
0000
3C00
6600
e700
e700
e700
e700
6600
3C00
0000
0000
0000
0000
ENDCHAR
STARTCHAR otilde
ENCODING 245
SWIDTH 733 0
DWIDTH 11 0
BBX 8 19 2 -4
BITMAP
0000
0000
0000
3800
5d00
0e00
0000
3c00
6600
e700
e700
e700
e700
6600
3c00
0000
0000
0000
0000
ENDCHAR
STARTCHAR odiaeresis
ENCODING 246
SWIDTH 733 0
DWIDTH 11 0
BBX 9 19 2 -4
BITMAP
0000
0000
0000
6600
6600
0000
0000
3C00
6600
e700
e700
e700
e700
6600
3C00
0000
0000
0000
0000
ENDCHAR
STARTCHAR DivideSign
ENCODING 247
SWIDTH 733 0
DWIDTH 11 0
BBX 10 19 1 -4
BITMAP
0000
0000
0000
0000
0000
0c00
0c00
0000
FFC0
FFC0
0000
0c00
0c00
0000
0000
0000
0000
0000
0000
ENDCHAR
STARTCHAR ooblique
ENCODING 248
SWIDTH 733 0
DWIDTH 11 0
BBX 8 19 2 -4
BITMAP
0000
0000
0000
0000
0000
0200
0200
3C00
6600
ef00
ef00
f700
f700
6600
3C00
4000
4000
0000
0000
ENDCHAR
STARTCHAR ugrave
ENCODING 249
SWIDTH 733 0
DWIDTH 11 0
BBX 10 19 1 -4
BITMAP
0000
0000
0000
7000
3800
0c00
0000
3180
f780
7380
7380
7380
7380
77C0
3980
0000
0000
0000
0000
ENDCHAR
STARTCHAR uacute
ENCODING 250
SWIDTH 733 0
DWIDTH 11 0
BBX 10 19 1 -4
BITMAP
0000
0000
0000
0380
0700
0c00
0000
3180
f780
7380
7380
7380
7380
77C0
3980
0000
0000
0000
0000
ENDCHAR
STARTCHAR ucircumflex
ENCODING 251
SWIDTH 733 0
DWIDTH 11 0
BBX 10 19 1 -4
BITMAP
0000
0000
0000
0C00
1E00
3300
0000
3180
f780
7380
7380
7380
7380
77C0
3980
0000
0000
0000
0000
ENDCHAR
STARTCHAR udiaeresis
ENCODING 252
SWIDTH 733 0
DWIDTH 11 0
BBX 10 19 1 -4
BITMAP
0000
0000
0000
3300
3300
0000
0000
3180
f780
7380
7380
7380
7380
77C0
3980
0000
0000
0000
0000
ENDCHAR
STARTCHAR yacute
ENCODING 253
SWIDTH 733 0
DWIDTH 11 0
BBX 10 19 1 -4
BITMAP
0000
0000
0000
0380
0700
0c00
0000
f9c0
7080
3980
3900
1f00
1e00
0e00
0c00
4c00
f800
7000
0000
ENDCHAR
STARTCHAR thorn
ENCODING 254
SWIDTH 733 0
DWIDTH 11 0
BBX 10 19 1 -4
BITMAP
0000
0000
0000
3000
f000
7000
7000
7700
7b80
71c0
71c0
71c0
71c0
7b80
7700
7000
7000
fc00
0000
ENDCHAR
STARTCHAR ydiaeresis
ENCODING 255
SWIDTH 733 0
DWIDTH 11 0
BBX 10 19 1 -4
BITMAP
0000
0000
0000
1980
1980
0000
0000
f9c0
7080
3980
3900
1f00
1e00
0e00
0c00
4c00
f800
7000
0000
ENDCHAR
ENDFONT
